<mxfile host="Electron" modified="2024-07-04T03:25:32.225Z" agent="Mozilla/5.0 (Windows NT 10.0; Win64; x64) AppleWebKit/537.36 (KHTML, like Gecko) draw.io/24.6.4 Chrome/124.0.6367.207 Electron/30.0.6 Safari/537.36" etag="WS890iFwfs5N_fGPeS27" version="24.6.4" type="device">
  <diagram name="PÃ¡gina-1" id="E-u-CpDYemUjqZMhalig">
    <mxGraphModel dx="880" dy="532" grid="1" gridSize="10" guides="1" tooltips="1" connect="1" arrows="1" fold="1" page="1" pageScale="1" pageWidth="827" pageHeight="1169" math="0" shadow="0">
      <root>
        <mxCell id="0" />
        <mxCell id="1" parent="0" />
        <mxCell id="cOSjpcxcCmP_2cGqgnM--1" value="&lt;font size=&quot;1&quot; face=&quot;Lucida Console&quot;&gt;&lt;span style=&quot;font-size: 14px;&quot;&gt;#1&lt;/span&gt;&lt;/font&gt;" style="ellipse;whiteSpace=wrap;html=1;aspect=fixed;fillColor=#dae8fc;strokeColor=#000000;" vertex="1" parent="1">
          <mxGeometry x="400" y="120" width="40" height="40" as="geometry" />
        </mxCell>
        <mxCell id="cOSjpcxcCmP_2cGqgnM--2" value="&lt;font size=&quot;1&quot; face=&quot;Lucida Console&quot;&gt;&lt;span style=&quot;font-size: 14px;&quot;&gt;#2&lt;/span&gt;&lt;/font&gt;" style="ellipse;whiteSpace=wrap;html=1;aspect=fixed;fillColor=#dae8fc;strokeColor=#000000;" vertex="1" parent="1">
          <mxGeometry x="320" y="200" width="40" height="40" as="geometry" />
        </mxCell>
        <mxCell id="cOSjpcxcCmP_2cGqgnM--3" value="&lt;font size=&quot;1&quot; face=&quot;Lucida Console&quot;&gt;&lt;span style=&quot;font-size: 14px;&quot;&gt;#3&lt;/span&gt;&lt;/font&gt;" style="ellipse;whiteSpace=wrap;html=1;aspect=fixed;fillColor=#dae8fc;strokeColor=#000000;" vertex="1" parent="1">
          <mxGeometry x="480" y="200" width="40" height="40" as="geometry" />
        </mxCell>
        <mxCell id="cOSjpcxcCmP_2cGqgnM--4" value="&lt;font size=&quot;1&quot; face=&quot;Lucida Console&quot;&gt;&lt;span style=&quot;font-size: 14px;&quot;&gt;#4&lt;/span&gt;&lt;/font&gt;" style="ellipse;whiteSpace=wrap;html=1;aspect=fixed;fillColor=#dae8fc;strokeColor=#000000;" vertex="1" parent="1">
          <mxGeometry x="400" y="280" width="40" height="40" as="geometry" />
        </mxCell>
        <mxCell id="cOSjpcxcCmP_2cGqgnM--5" value="&lt;font size=&quot;1&quot; face=&quot;Lucida Console&quot;&gt;&lt;span style=&quot;font-size: 14px;&quot;&gt;#5&lt;/span&gt;&lt;/font&gt;" style="ellipse;whiteSpace=wrap;html=1;aspect=fixed;fillColor=#dae8fc;strokeColor=#000000;" vertex="1" parent="1">
          <mxGeometry x="560" y="280" width="40" height="40" as="geometry" />
        </mxCell>
        <mxCell id="cOSjpcxcCmP_2cGqgnM--7" value="" style="endArrow=classic;html=1;rounded=0;exitX=0;exitY=1;exitDx=0;exitDy=0;entryX=1;entryY=0;entryDx=0;entryDy=0;" edge="1" parent="1" source="cOSjpcxcCmP_2cGqgnM--3" target="cOSjpcxcCmP_2cGqgnM--4">
          <mxGeometry width="50" height="50" relative="1" as="geometry">
            <mxPoint x="420" y="430" as="sourcePoint" />
            <mxPoint x="470" y="380" as="targetPoint" />
          </mxGeometry>
        </mxCell>
        <mxCell id="cOSjpcxcCmP_2cGqgnM--8" value="" style="endArrow=classic;html=1;rounded=0;exitX=1;exitY=1;exitDx=0;exitDy=0;entryX=0;entryY=0;entryDx=0;entryDy=0;" edge="1" parent="1" source="cOSjpcxcCmP_2cGqgnM--3" target="cOSjpcxcCmP_2cGqgnM--5">
          <mxGeometry width="50" height="50" relative="1" as="geometry">
            <mxPoint x="496" y="244" as="sourcePoint" />
            <mxPoint x="444" y="296" as="targetPoint" />
          </mxGeometry>
        </mxCell>
        <mxCell id="cOSjpcxcCmP_2cGqgnM--9" value="" style="endArrow=classic;html=1;rounded=0;exitX=0;exitY=1;exitDx=0;exitDy=0;entryX=1;entryY=0;entryDx=0;entryDy=0;" edge="1" parent="1" source="cOSjpcxcCmP_2cGqgnM--1" target="cOSjpcxcCmP_2cGqgnM--2">
          <mxGeometry width="50" height="50" relative="1" as="geometry">
            <mxPoint x="496" y="244" as="sourcePoint" />
            <mxPoint x="444" y="296" as="targetPoint" />
          </mxGeometry>
        </mxCell>
        <mxCell id="cOSjpcxcCmP_2cGqgnM--10" value="" style="endArrow=classic;html=1;rounded=0;exitX=1;exitY=1;exitDx=0;exitDy=0;" edge="1" parent="1" source="cOSjpcxcCmP_2cGqgnM--1" target="cOSjpcxcCmP_2cGqgnM--3">
          <mxGeometry width="50" height="50" relative="1" as="geometry">
            <mxPoint x="416" y="164" as="sourcePoint" />
            <mxPoint x="364" y="216" as="targetPoint" />
          </mxGeometry>
        </mxCell>
      </root>
    </mxGraphModel>
  </diagram>
</mxfile>
